<svg width="16" height="16" viewBox="0 0 16 16" fill="none" xmlns="http://www.w3.org/2000/svg">
<g clip-path="url(#clip0_1_61)">
<path d="M7.99992 1.33333C5.41992 1.33333 3.33325 3.42 3.33325 6C3.33325 9.5 7.99992 14.6667 7.99992 14.6667C7.99992 14.6667 12.6666 9.5 12.6666 6C12.6666 3.42 10.5799 1.33333 7.99992 1.33333ZM4.66659 6C4.66659 4.16 6.15992 2.66666 7.99992 2.66666C9.83992 2.66666 11.3333 4.16 11.3333 6C11.3333 7.92 9.41325 10.7933 7.99992 12.5867C6.61325 10.8067 4.66659 7.9 4.66659 6Z" fill="#495057"/>
<path d="M7.99992 7.66666C8.92039 7.66666 9.66659 6.92047 9.66659 5.99999C9.66659 5.07952 8.92039 4.33333 7.99992 4.33333C7.07944 4.33333 6.33325 5.07952 6.33325 5.99999C6.33325 6.92047 7.07944 7.66666 7.99992 7.66666Z" fill="#495057"/>
</g>
<defs>
<clipPath id="clip0_1_61">
<rect width="16" height="16" fill="white"/>
</clipPath>
</defs>
</svg>
